<?xml version="1.0" standalone="no"?>
<!DOCTYPE svg PUBLIC "-//W3C//DTD SVG 20010904//EN"
 "http://www.w3.org/TR/2001/REC-SVG-20010904/DTD/svg10.dtd">
<svg version="1.0" xmlns="http://www.w3.org/2000/svg"
 width="512.000000pt" height="512.000000pt" viewBox="0 0 512.000000 512.000000"
 preserveAspectRatio="xMidYMid meet">
<metadata>
Created by potrace 1.11, written by Peter Selinger 2001-2013
</metadata>
<g transform="translate(0.000000,512.000000) scale(0.100000,-0.100000)"
fill="#000000" stroke="none">
<path d="M2527 4923 c-13 -12 -7 -21 21 -26 64 -14 358 -279 489 -442 26 -33
53 -65 58 -71 10 -11 70 -95 156 -221 l50 -73 67 0 c40 0 79 -6 96 -15 15 -8
34 -15 41 -15 22 0 120 -96 139 -137 11 -21 23 -46 28 -57 17 -32 12 -197 -7
-236 -26 -57 -40 -78 -75 -116 -36 -40 -37 -21 8 -174 16 -57 42 -90 71 -90
54 0 141 -130 141 -210 0 -59 -44 -146 -90 -178 l-37 -27 -1 -295 c-1 -169 -6
-310 -12 -330 -5 -19 -10 -55 -10 -80 0 -25 -5 -61 -10 -80 -6 -19 -15 -62
-20 -95 -16 -105 -28 -163 -39 -184 -6 -11 -11 -31 -11 -45 0 -15 -4 -34 -9
-44 -5 -9 -16 -44 -26 -77 -9 -33 -20 -67 -25 -75 -4 -9 -11 -30 -14 -48 -4
-17 -12 -34 -17 -37 -5 -4 -9 -13 -9 -21 0 -8 -12 -41 -26 -72 -14 -31 -37
-82 -51 -112 -14 -30 -29 -62 -34 -70 -5 -8 -18 -34 -29 -57 -11 -23 -24 -45
-30 -48 -15 -9 -12 -47 5 -69 23 -30 20 -138 -5 -186 -45 -88 -98 -121 -195
-124 l-73 -1 -48 -55 c-149 -169 -414 -400 -458 -400 -10 0 -16 -6 -14 -12 13
-37 352 -11 558 42 76 20 156 43 175 50 11 4 70 27 130 50 118 45 290 130 341
167 17 13 34 23 37 23 15 0 227 157 312 231 398 343 678 833 768 1344 38 212
39 227 13 255 -92 99 -110 222 -45 308 16 20 37 48 48 62 17 22 18 32 10 90
-17 119 -41 244 -61 320 -11 41 -24 89 -28 105 -15 53 -38 118 -86 235 -23 59
-103 213 -137 267 -15 24 -27 45 -27 48 0 3 -34 53 -76 112 -129 181 -229 293
-379 422 -85 74 -297 231 -312 231 -3 0 -20 11 -37 23 -26 20 -260 138 -331
167 -149 62 -375 120 -582 150 -80 11 -276 14 -286 3z m1718 -2873 c46 -21 81
-56 120 -119 23 -38 27 -54 27 -131 1 -100 -9 -130 -67 -198 -52 -60 -112 -85
-207 -86 -79 -1 -106 8 -75 26 41 22 85 70 110 119 38 72 38 184 1 264 -24 51
-92 125 -114 125 -6 0 -10 4 -10 9 0 26 152 20 215 -9z"/>
<path d="M1962 3865 c-104 -29 -199 -108 -250 -208 -24 -47 -27 -63 -27 -158
0 -104 3 -117 43 -194 44 -85 151 -161 260 -185 80 -18 158 4 131 36 -6 8 -17
14 -23 14 -14 0 -79 93 -100 144 -17 42 -22 165 -7 194 5 9 17 38 26 64 31 89
149 188 224 188 33 0 45 12 37 38 -6 17 -15 23 -86 57 -49 23 -163 28 -228 10z"/>
<path d="M1185 2441 c-138 -56 -207 -148 -208 -277 0 -60 4 -79 26 -116 32
-55 92 -110 148 -138 51 -24 150 -27 200 -6 90 39 130 114 66 126 -43 8 -92
54 -120 114 -23 47 -27 70 -27 141 0 73 3 91 24 124 14 21 22 42 19 45 -12 11
-88 4 -128 -13z"/>
<path d="M2235 1863 c-120 -25 -210 -86 -267 -179 -95 -156 -71 -323 66 -460
123 -123 277 -150 424 -76 17 9 32 20 32 24 0 5 6 8 14 8 17 0 136 129 136
147 0 15 -21 20 -89 22 -29 1 -60 6 -70 10 -9 4 -34 17 -56 27 -56 26 -118 86
-146 141 -20 38 -24 61 -24 142 0 53 4 120 8 149 5 28 5 51 0 51 -4 -1 -17 -3
-28 -6z"/>
</g>
</svg>
